<svg width="19" height="19" viewBox="0 0 19 19" fill="none" xmlns="http://www.w3.org/2000/svg">
<g id="Group">
<path id="Vector" d="M8.60815 4.75024V8.60962H4.74878V10.3909H8.60815V14.2502H10.3894V10.3909H14.2488V8.60962H10.3894V4.75024H8.60815Z" fill="white" fill-opacity="0.84"/>
<path id="Vector_2" d="M10.7457 0.516563C10.0569 -0.172187 8.94069 -0.172187 8.25194 0.516563L0.516563 8.25313C-0.172187 8.94187 -0.172187 10.0569 0.516563 10.7445L8.25431 18.4823C8.94306 19.171 10.0581 19.171 10.7457 18.4823L18.4834 10.7445C19.1722 10.0558 19.1722 8.94069 18.4834 8.25313L10.7457 0.516563ZM9.08319 1.34781C9.19342 1.23759 9.34293 1.17567 9.49881 1.17567C9.6547 1.17567 9.8042 1.23759 9.91444 1.34781L17.6522 9.08438C17.7624 9.19461 17.8243 9.34411 17.8243 9.5C17.8243 9.65589 17.7624 9.80539 17.6522 9.91563L9.91444 17.6534C9.8042 17.7636 9.6547 17.8255 9.49881 17.8255C9.34293 17.8255 9.19342 17.7636 9.08319 17.6534L1.34544 9.91563C1.23521 9.80539 1.17329 9.65589 1.17329 9.5C1.17329 9.34411 1.23521 9.19461 1.34544 9.08438L9.08319 1.34662V1.34781Z" fill="white" fill-opacity="0.84"/>
</g>
</svg>
