<svg xmlns="http://www.w3.org/2000/svg" width="22" height="22" viewBox="0 0 22 22" fill="none">
  <path d="M10.0133 1.15209C9.6453 1.30409 9.3163 1.63409 8.6573 2.29209C7.9983 2.95209 7.6683 3.28109 7.5173 3.64809C7.41675 3.89078 7.365 4.1509 7.365 4.41359C7.365 4.67628 7.41675 4.9364 7.5173 5.17909C7.6683 5.54709 7.9973 5.87609 8.6573 6.53509C9.3153 7.19409 9.6453 7.52409 10.0133 7.67509C10.5031 7.87787 11.0535 7.87787 11.5433 7.67509C11.9113 7.52409 12.2403 7.19509 12.8993 6.53509C13.5593 5.87609 13.8873 5.54709 14.0393 5.17909C14.2421 4.68925 14.2421 4.13893 14.0393 3.64909C13.8873 3.28109 13.5593 2.95209 12.8993 2.29309C12.2403 1.63309 11.9113 1.30409 11.5433 1.15209C11.0535 0.949304 10.5031 0.949304 10.0133 1.15209ZM3.6483 7.51609C3.2813 7.66809 2.9513 7.99709 2.2933 8.65609C1.6333 9.31609 1.3043 9.64509 1.1523 10.0121C1.05175 10.2548 1 10.5149 1 10.7776C1 11.0403 1.05175 11.3004 1.1523 11.5431C1.3043 11.9111 1.6343 12.2401 2.2923 12.8991C2.9523 13.5581 3.2813 13.8871 3.6483 14.0391C3.89098 14.1396 4.1511 14.1914 4.4138 14.1914C4.67649 14.1914 4.93661 14.1396 5.1793 14.0391C5.5473 13.8871 5.8763 13.5581 6.5353 12.8991C7.1953 12.2401 7.5233 11.9111 7.6753 11.5431C7.87808 11.0532 7.87808 10.5029 7.6753 10.0131C7.5233 9.64509 7.1953 9.31509 6.5353 8.65609C5.8763 7.99709 5.5473 7.66809 5.1793 7.51609C4.68945 7.3133 4.13814 7.3133 3.6483 7.51609ZM15.0213 8.65609C14.3623 9.31609 14.0333 9.64509 13.8813 10.0121C13.7808 10.2548 13.729 10.5149 13.729 10.7776C13.729 11.0403 13.7808 11.3004 13.8813 11.5431C14.0333 11.9111 14.3623 12.2401 15.0213 12.8991C15.6803 13.5581 16.0103 13.8871 16.3773 14.0391C16.8671 14.2419 17.4175 14.2419 17.9073 14.0391C18.2753 13.8871 18.6053 13.5581 19.2643 12.8991C19.9233 12.2401 20.2513 11.9111 20.4043 11.5431C20.6071 11.0532 20.6071 10.5029 20.4043 10.0131C20.2513 9.64509 19.9233 9.31509 19.2643 8.65609C18.6043 7.99709 18.2753 7.66809 17.9083 7.51609C17.6656 7.41554 17.4055 7.36379 17.1428 7.36379C16.8801 7.36379 16.62 7.41554 16.3773 7.51609C16.0103 7.66809 15.6803 7.99709 15.0213 8.65609ZM10.0133 13.8801C9.6453 14.0321 9.3163 14.3621 8.6573 15.0201C7.9983 15.6801 7.6683 16.0091 7.5173 16.3771C7.31451 16.8669 7.31451 17.4172 7.5173 17.9071C7.6683 18.2751 7.9973 18.6041 8.6573 19.2631C9.3153 19.9221 9.6453 20.2521 10.0133 20.4031C10.5031 20.6059 11.0535 20.6059 11.5433 20.4031C11.9113 20.2521 12.2403 19.9231 12.8993 19.2631C13.5593 18.6041 13.8873 18.2751 14.0393 17.9071C14.2423 17.4171 14.2423 16.8671 14.0393 16.3771C13.8873 16.0091 13.5593 15.6791 12.8993 15.0211C12.2403 14.3611 11.9113 14.0321 11.5433 13.8801C11.0535 13.6773 10.5031 13.6773 10.0133 13.8801Z" stroke="white" stroke-width="2" stroke-linecap="round" stroke-linejoin="round"/>
</svg>