<svg width="20" height="20" viewBox="0 0 20 20" fill="none" xmlns="http://www.w3.org/2000/svg">
<g clip-path="url(#clip0_186_187)">
<path d="M18.899 1.10085C19.0489 1.25087 19.1331 1.45427 19.1331 1.66635C19.1331 1.87843 19.0489 2.08184 18.899 2.23185L9.732 11.3999C9.58075 11.5435 9.37935 11.6225 9.17074 11.6198C8.96213 11.6171 8.76282 11.5331 8.6153 11.3856C8.46778 11.238 8.38372 11.0387 8.38105 10.8301C8.37838 10.6215 8.4573 10.4201 8.601 10.2689L17.768 1.09985C17.918 0.949936 18.1214 0.865723 18.3335 0.865723C18.5456 0.865723 18.749 0.950936 18.899 1.10085Z" fill="white"/>
<path d="M18.8984 1.10121C19.005 1.20764 19.0794 1.342 19.113 1.48884C19.1466 1.63567 19.1381 1.78901 19.0884 1.93121L13.2544 18.5982C13.2013 18.7494 13.1041 18.8813 12.9752 18.9766C12.8464 19.0719 12.6919 19.1263 12.5318 19.1328C12.3716 19.1392 12.2132 19.0974 12.0771 19.0128C11.941 18.9282 11.8334 18.8047 11.7684 18.6582L8.56038 11.4402L1.33938 8.23121C1.19295 8.16605 1.06946 8.05841 0.984933 7.92224C0.900403 7.78607 0.858724 7.62764 0.865297 7.4675C0.871871 7.30736 0.926395 7.15289 1.0218 7.0241C1.11721 6.89531 1.2491 6.79815 1.40038 6.74521L18.0694 0.912214C18.2115 0.862407 18.3648 0.853721 18.5116 0.887155C18.6584 0.92059 18.7918 0.994787 18.8984 1.10121ZM3.83538 7.58821L9.49138 10.1022C9.67229 10.1826 9.81695 10.3273 9.89738 10.5082L12.4114 16.1652L17.0284 2.97021L3.83538 7.58821Z" fill="white"/>
</g>
<defs>
<clipPath id="clip0_186_187">
<rect width="20" height="20" fill="white"/>
</clipPath>
</defs>
</svg>
