<svg xmlns="http://www.w3.org/2000/svg" width="26" height="27" viewBox="0 0 26 27" fill="none">
  <g clip-path="url(#clip0_87_287)">
    <path d="M13 14C16.3137 14 19 11.3137 19 8C19 4.68629 16.3137 2 13 2C9.68629 2 7 4.68629 7 8C7 11.3137 9.68629 14 13 14Z" stroke="white" stroke-width="2"/>
    <path d="M19.2969 16.1125H19.7402C20.6609 16.1128 21.5499 16.4493 22.24 17.0587C22.9301 17.6681 23.374 18.5086 23.4881 19.4222L23.9806 23.3565C24.0249 23.7109 23.9933 24.0707 23.8879 24.412C23.7825 24.7533 23.6057 25.0683 23.3693 25.336C23.1329 25.6038 22.8422 25.8182 22.5166 25.965C22.191 26.1118 21.8379 26.1877 21.4807 26.1876H4.51931C4.16213 26.1877 3.80902 26.1118 3.4834 25.965C3.15779 25.8182 2.86713 25.6038 2.63071 25.336C2.39429 25.0683 2.21752 24.7533 2.11214 24.412C2.00675 24.0707 1.97515 23.7109 2.01944 23.3565L2.5106 19.4222C2.62482 18.5082 3.06903 17.6674 3.75969 17.0579C4.45036 16.4484 5.3399 16.1122 6.26104 16.1125H6.70308" stroke="white" stroke-width="2" stroke-linecap="round" stroke-linejoin="round"/>
  </g>
  <defs>
    <clipPath id="clip0_87_287">
      <rect width="26" height="26" fill="white" transform="translate(0 0.5)"/>
    </clipPath>
  </defs>
</svg>