<svg width="174" height="174" viewBox="0 0 174 174" fill="none" xmlns="http://www.w3.org/2000/svg">
<path d="M150.701 77.3836C150.73 76.7224 150.8 76.0728 150.8 75.4C150.8 49.7756 130.024 29 104.4 29C86.362 29 70.76 39.3182 63.0866 54.3518C59.7168 52.9888 56.057 52.2 52.2 52.2C37.526 52.2 25.5258 63.133 23.5944 77.2792C9.8774 81.9482 0 94.9054 0 110.2C0 129.421 15.5788 145 34.8 145H139.2C158.421 145 174 129.421 174 110.2C174 95.0156 164.262 82.1396 150.701 77.3836ZM65.4994 94.4994L82.8994 77.0994C84.0304 75.9684 85.5152 75.4 87 75.4C88.4848 75.4 89.9696 75.9684 91.1006 77.0994L108.501 94.4994C110.768 96.7672 110.768 100.433 108.501 102.701C106.233 104.968 102.567 104.968 100.299 102.701L92.8 95.2012V168.2C92.8 171.402 90.2074 174 87 174C83.7926 174 81.2 171.402 81.2 168.2V95.2012L73.7006 102.701C71.4328 104.968 67.7672 104.968 65.4994 102.701C63.2316 100.433 63.2316 96.7672 65.4994 94.4994Z" fill="white"/>
</svg>
